<svg width="76" height="81" viewBox="0 0 76 81" fill="none" xmlns="http://www.w3.org/2000/svg">
<path d="M40.1234 80.3075L74.511 56.0088C75.2401 55.4904 75.6527 54.7669 75.6527 54.0001L75.6527 37.801C75.6527 36.7372 74.8549 35.7707 73.617 35.3333C72.3721 34.9013 70.921 35.0795 69.9169 35.7923L37.8263 58.4657L5.74268 35.7923C4.73169 35.0795 3.28053 34.8959 2.04257 35.3333C0.797737 35.7707 -5.34774e-05 36.7372 -5.35239e-05 37.801L-5.4232e-05 54.0001C-5.42655e-05 54.7669 0.419471 55.4904 1.13473 56.0088L35.5224 80.3075C36.8291 81.2308 38.8236 81.2308 40.1234 80.3075Z" fill="#000D67"/>
<path d="M40.1234 45.2094L74.511 20.9107C75.2401 20.3923 75.6527 19.6688 75.6527 18.902L75.6527 2.70289C75.6527 1.63915 74.8549 0.6726 73.617 0.235223C72.3721 -0.196753 70.921 -0.0185629 69.9169 0.694198L37.8263 23.3676L5.74271 0.694196C4.73171 -0.0185658 3.28056 -0.202156 2.0426 0.23522C0.797768 0.672597 -2.29598e-05 1.63914 -2.30063e-05 2.70289L-2.37144e-05 18.902C-2.37479e-05 19.6688 0.419501 20.3923 1.13476 20.9107L35.5224 45.2094C36.8291 46.1327 38.8236 46.1327 40.1234 45.2094Z" fill="#000D67"/>
</svg>
