<svg width="108" height="100" viewBox="0 0 108 100" fill="none" xmlns="http://www.w3.org/2000/svg">
<path d="M35.2655 85L46.8065 85V71.5233V61.7273V48.613V24.9839V12H35.2903H24V25.6438L46.8065 48.613L24 71.3097V85H33.7097H35.2655Z" fill="#000D67"/>
<path d="M62.9334 71.5233L52.2258 48.613L63.4742 24.9839L69.3871 12H81.3548H94L85.2841 31.1832C85.2841 31.1832 76.8387 48.484 76.8387 48.8434C76.8387 49.2926 80.868 57.4178 85.2841 66.6717C89.7903 75.9257 94 85 94 85L81.3548 85L69.1613 85L62.9334 71.5233Z" fill="#000D67"/>
<path d="M24 48.613V34.3637L38.2258 48.613L24 62.8439V48.613Z" fill="#000D67"/>
</svg>
