<svg width="453" height="453" viewBox="0 0 453 453" fill="none" xmlns="http://www.w3.org/2000/svg">
<ellipse cx="302.5" cy="123.5" rx="87.5" ry="83.5" fill="#000D67"/>
<path d="M340 123.5C340 143.658 322.987 160 302 160C281.013 160 264 143.658 264 123.5C264 103.342 281.013 87 302 87C322.987 87 340 103.342 340 123.5Z" fill="white"/>
<path d="M86.9449 203.981L112.5 203.981V174.17V152.5V123.49V71.2213V42.5H87H62V72.681L112.5 123.49L62 173.697V203.981H83.5H86.9449Z" fill="#000D67"/>
<path d="M148.21 174.17L124.5 123.49L149.407 71.2213L162.5 42.5H189H217L197.7 84.9345C197.7 84.9345 179 123.205 179 124C179 124.994 187.922 142.967 197.7 163.437C207.678 183.908 217 203.981 217 203.981L189 203.981L162 203.981L148.21 174.17Z" fill="#000D67"/>
<path d="M62 123.49V91.9701L93.5 123.49L62 154.97V123.49Z" fill="#000D67"/>
<path d="M61.8634 300.137V381.159H86.8083H112.5V363.198V344.5H127H141.5L152.863 363.198L163.5 381.5L192.5 381.5C215.5 381.5 222.5 381.5 222.5 381.5L205.5 356L190.5 333.5C190.5 333.5 197.5 328.5 202 324C213.5 312.5 218.5 297 218.5 278C218 270.5 214.496 259.491 212.5 255.5C206.77 242.864 194.471 231.987 181.5 226C181.5 226 167 219.915 155.5 219.915C144 219.915 115.345 219.915 115.345 219.915H61.8634V300.137ZM153 264C163 266.5 167.892 274.928 167.5 283C167.038 292.5 159.5 298.5 153 300H134.5H112.5V283C112.5 273.82 112.5 264 112.5 264H153Z" fill="#000D67"/>
<path d="M239.471 300.337V381.159H305.326H371.181V359.207V337.255H330.271H289.361V329.273V321.291H322.288H355.216V300.337V279.383H322.288H289.361V271.401V263.418H330.271H371.181V241.467V219.515H305.326H239.471V300.337Z" fill="#000D67"/>
</svg>
